<svg xmlns="http://www.w3.org/2000/svg" viewBox="0 0 32 32" fill="none">
  <rect width="32" height="32" rx="8" fill="#080a18"/>
  <rect x="1" y="1" width="30" height="30" rx="7" stroke="url(#paint0_linear)" stroke-width="2"/>
  <path d="M16 8C12.6863 8 10 10.6863 10 14C10 16.5562 11.6019 18.7369 13.8571 19.5714V22H18.1429V19.5714C20.3981 18.7369 22 16.5562 22 14C22 10.6863 19.3137 8 16 8ZM16 16C14.8954 16 14 15.1046 14 14C14 12.8954 14.8954 12 16 12C17.1046 12 18 12.8954 18 14C18 15.1046 17.1046 16 16 16Z" fill="#00F0FF"/>
  <defs>
    <linearGradient id="paint0_linear" x1="0" y1="0" x2="32" y2="32" gradientUnits="userSpaceOnUse">
      <stop stop-color="#00F0FF"/>
      <stop offset="1" stop-color="#8B5CF6"/>
    </linearGradient>
  </defs>
</svg>
